<svg id="visual" viewBox="0 0 900 450" width="900" height="450" xmlns="http://www.w3.org/2000/svg" xmlns:xlink="http://www.w3.org/1999/xlink" version="1.1"><rect x="0" y="0" width="900" height="450" fill="#001220"></rect><defs><linearGradient id="grad1_0" x1="50%" y1="0%" x2="100%" y2="100%"><stop offset="10%" stop-color="#5bae2b" stop-opacity="1"></stop><stop offset="90%" stop-color="#5bae2b" stop-opacity="1"></stop></linearGradient></defs><defs><linearGradient id="grad1_1" x1="50%" y1="0%" x2="100%" y2="100%"><stop offset="10%" stop-color="#5bae2b" stop-opacity="1"></stop><stop offset="90%" stop-color="#009a49" stop-opacity="1"></stop></linearGradient></defs><defs><linearGradient id="grad1_2" x1="50%" y1="0%" x2="100%" y2="100%"><stop offset="10%" stop-color="#00845b" stop-opacity="1"></stop><stop offset="90%" stop-color="#009a49" stop-opacity="1"></stop></linearGradient></defs><defs><linearGradient id="grad1_3" x1="50%" y1="0%" x2="100%" y2="100%"><stop offset="10%" stop-color="#00845b" stop-opacity="1"></stop><stop offset="90%" stop-color="#006d63" stop-opacity="1"></stop></linearGradient></defs><defs><linearGradient id="grad1_4" x1="50%" y1="0%" x2="100%" y2="100%"><stop offset="10%" stop-color="#005560" stop-opacity="1"></stop><stop offset="90%" stop-color="#006d63" stop-opacity="1"></stop></linearGradient></defs><defs><linearGradient id="grad1_5" x1="50%" y1="0%" x2="100%" y2="100%"><stop offset="10%" stop-color="#005560" stop-opacity="1"></stop><stop offset="90%" stop-color="#003d52" stop-opacity="1"></stop></linearGradient></defs><defs><linearGradient id="grad1_6" x1="50%" y1="0%" x2="100%" y2="100%"><stop offset="10%" stop-color="#00273b" stop-opacity="1"></stop><stop offset="90%" stop-color="#003d52" stop-opacity="1"></stop></linearGradient></defs><defs><linearGradient id="grad1_7" x1="50%" y1="0%" x2="100%" y2="100%"><stop offset="10%" stop-color="#00273b" stop-opacity="1"></stop><stop offset="90%" stop-color="#001220" stop-opacity="1"></stop></linearGradient></defs><defs><linearGradient id="grad2_0" x1="0%" y1="0%" x2="50%" y2="100%"><stop offset="10%" stop-color="#5bae2b" stop-opacity="1"></stop><stop offset="90%" stop-color="#5bae2b" stop-opacity="1"></stop></linearGradient></defs><defs><linearGradient id="grad2_1" x1="0%" y1="0%" x2="50%" y2="100%"><stop offset="10%" stop-color="#009a49" stop-opacity="1"></stop><stop offset="90%" stop-color="#5bae2b" stop-opacity="1"></stop></linearGradient></defs><defs><linearGradient id="grad2_2" x1="0%" y1="0%" x2="50%" y2="100%"><stop offset="10%" stop-color="#009a49" stop-opacity="1"></stop><stop offset="90%" stop-color="#00845b" stop-opacity="1"></stop></linearGradient></defs><defs><linearGradient id="grad2_3" x1="0%" y1="0%" x2="50%" y2="100%"><stop offset="10%" stop-color="#006d63" stop-opacity="1"></stop><stop offset="90%" stop-color="#00845b" stop-opacity="1"></stop></linearGradient></defs><defs><linearGradient id="grad2_4" x1="0%" y1="0%" x2="50%" y2="100%"><stop offset="10%" stop-color="#006d63" stop-opacity="1"></stop><stop offset="90%" stop-color="#005560" stop-opacity="1"></stop></linearGradient></defs><defs><linearGradient id="grad2_5" x1="0%" y1="0%" x2="50%" y2="100%"><stop offset="10%" stop-color="#003d52" stop-opacity="1"></stop><stop offset="90%" stop-color="#005560" stop-opacity="1"></stop></linearGradient></defs><defs><linearGradient id="grad2_6" x1="0%" y1="0%" x2="50%" y2="100%"><stop offset="10%" stop-color="#003d52" stop-opacity="1"></stop><stop offset="90%" stop-color="#00273b" stop-opacity="1"></stop></linearGradient></defs><defs><linearGradient id="grad2_7" x1="0%" y1="0%" x2="50%" y2="100%"><stop offset="10%" stop-color="#001220" stop-opacity="1"></stop><stop offset="90%" stop-color="#00273b" stop-opacity="1"></stop></linearGradient></defs><g transform="translate(900, 0)"><path d="M0 292.5C-47.1 278.4 -94.3 264.2 -139.5 241.6C-184.7 219 -228.1 187.9 -253.3 146.3C-278.5 104.6 -285.5 52.3 -292.5 0L0 0Z" fill="#001c2e"></path><path d="M0 255.9C-41.2 243.6 -82.5 231.2 -122.1 211.4C-161.7 191.6 -199.6 164.4 -221.6 128C-243.7 91.5 -249.8 45.7 -255.9 0L0 0Z" fill="#003248"></path><path d="M0 219.4C-35.3 208.8 -70.7 198.2 -104.6 181.2C-138.6 164.3 -171.1 140.9 -190 109.7C-208.9 78.4 -214.1 39.2 -219.4 0L0 0Z" fill="#00495b"></path><path d="M0 182.8C-29.5 174 -58.9 165.1 -87.2 151C-115.5 136.9 -142.6 117.5 -158.3 91.4C-174.1 65.4 -178.4 32.7 -182.8 0L0 0Z" fill="#006163"></path><path d="M0 146.3C-23.6 139.2 -47.1 132.1 -69.7 120.8C-92.4 109.5 -114.1 94 -126.7 73.1C-139.2 52.3 -142.7 26.1 -146.2 0L0 0Z" fill="#007861"></path><path d="M0 109.7C-17.7 104.4 -35.3 99.1 -52.3 90.6C-69.3 82.1 -85.5 70.5 -95 54.8C-104.4 39.2 -107.1 19.6 -109.7 0L0 0Z" fill="#008f53"></path><path d="M0 73.1C-11.8 69.6 -23.6 66.1 -34.9 60.4C-46.2 54.8 -57 47 -63.3 36.6C-69.6 26.1 -71.4 13.1 -73.1 0L0 0Z" fill="#34a43b"></path><path d="M0 36.6C-5.9 34.8 -11.8 33 -17.4 30.2C-23.1 27.4 -28.5 23.5 -31.7 18.3C-34.8 13.1 -35.7 6.5 -36.6 0L0 0Z" fill="#5bae2b"></path></g><g transform="translate(0, 450)"><path d="M0 -292.5C47.4 -278.8 94.8 -265.2 140 -242.5C185.2 -219.8 228.3 -188.2 253.3 -146.3C278.4 -104.3 285.4 -52.2 292.5 0L0 0Z" fill="#001c2e"></path><path d="M0 -255.9C41.5 -244 82.9 -232 122.5 -212.2C162.1 -192.3 199.7 -164.6 221.6 -128C243.6 -91.3 249.8 -45.6 255.9 0L0 0Z" fill="#003248"></path><path d="M0 -219.4C35.5 -209.1 71.1 -198.9 105 -181.9C138.9 -164.9 171.2 -141.1 190 -109.7C208.8 -78.3 214.1 -39.1 219.4 0L0 0Z" fill="#00495b"></path><path d="M0 -182.8C29.6 -174.3 59.2 -165.7 87.5 -151.6C115.8 -137.4 142.7 -117.6 158.3 -91.4C174 -65.2 178.4 -32.6 182.8 0L0 0Z" fill="#006163"></path><path d="M0 -146.2C23.7 -139.4 47.4 -132.6 70 -121.2C92.6 -109.9 114.1 -94.1 126.7 -73.1C139.2 -52.2 142.7 -26.1 146.3 0L0 0Z" fill="#007861"></path><path d="M0 -109.7C17.8 -104.6 35.5 -99.4 52.5 -90.9C69.5 -82.4 85.6 -70.6 95 -54.8C104.4 -39.1 107 -19.6 109.7 0L0 0Z" fill="#008f53"></path><path d="M0 -73.1C11.8 -69.7 23.7 -66.3 35 -60.6C46.3 -55 57.1 -47 63.3 -36.6C69.6 -26.1 71.4 -13 73.1 0L0 0Z" fill="#34a43b"></path><path d="M0 -36.6C5.9 -34.9 11.8 -33.1 17.5 -30.3C23.2 -27.5 28.5 -23.5 31.7 -18.3C34.8 -13 35.7 -6.5 36.6 0L0 0Z" fill="#5bae2b"></path></g></svg>